<svg xmlns="http://www.w3.org/2000/svg" viewBox="0 0 512 512">
  <defs>
    <linearGradient id="steam-gradient" x1="0%" y1="0%" x2="100%" y2="100%">
      <stop offset="0%" stop-color="#ffffff" stop-opacity="0.8"/>
      <stop offset="100%" stop-color="#ffffff" stop-opacity="0.2"/>
    </linearGradient>
    <linearGradient id="coffee-gradient" x1="0%" y1="0%" x2="100%" y2="100%">
      <stop offset="0%" stop-color="#6F4E37"/>
      <stop offset="100%" stop-color="#4b3621"/>
    </linearGradient>
  </defs>
  <circle cx="256" cy="256" r="256" fill="#1a0d0a"/>
  <path d="M370,150H190c-22,0-40,18-40,40v120c0,55,45,100,100,100h60c55,0,100-45,100-100V190C410,168,392,150,370,150z" fill="url(#coffee-gradient)"/>
  <path d="M410,200h30c22,0,40,18,40,40s-18,40-40,40h-30" fill="none" stroke="#FFD580" stroke-width="20"/>
  <path d="M220,150c0,0,0-30,30-50s60-20,60-20" fill="none" stroke="url(#steam-gradient)" stroke-width="10" stroke-linecap="round">
    <animate attributeName="d" values="M220,150c0,0,0-30,30-50s60-20,60-20;M220,150c0,0,10-30,40-40s50-30,50-30;M220,150c0,0,0-30,30-50s60-20,60-20" dur="3s" repeatCount="indefinite"/>
  </path>
  <path d="M260,150c0,0,10-20,30-30s40-10,40-10" fill="none" stroke="url(#steam-gradient)" stroke-width="8" stroke-linecap="round">
    <animate attributeName="d" values="M260,150c0,0,10-20,30-30s40-10,40-10;M260,150c0,0,20-20,40-20s30-20,30-20;M260,150c0,0,10-20,30-30s40-10,40-10" dur="4s" repeatCount="indefinite"/>
  </path>
  <path d="M300,150c0,0,5-15,15-25s30-10,30-10" fill="none" stroke="url(#steam-gradient)" stroke-width="6" stroke-linecap="round">
    <animate attributeName="d" values="M300,150c0,0,5-15,15-25s30-10,30-10;M300,150c0,0,15-15,25-15s20-20,20-20;M300,150c0,0,5-15,15-25s30-10,30-10" dur="2.5s" repeatCount="indefinite"/>
  </path>
</svg>